<?xml version="1.0" standalone="no"?>
<!DOCTYPE svg PUBLIC "-//W3C//DTD SVG 20010904//EN"
 "http://www.w3.org/TR/2001/REC-SVG-20010904/DTD/svg10.dtd">
<svg version="1.0" xmlns="http://www.w3.org/2000/svg"
 width="125.000000pt" height="152.000000pt" viewBox="0 0 125.000000 152.000000"
 preserveAspectRatio="xMidYMid meet">

<g transform="translate(0.000000,152.000000) scale(0.100000,-0.100000)"
fill="#000000" stroke="none">
<path d="M126 1505 c-50 -18 -92 -59 -111 -109 -14 -36 -15 -120 -13 -656 l3
-615 23 -38 c13 -20 43 -48 66 -62 l43 -25 488 0 488 0 43 25 c23 14 53 42 66
62 l23 38 3 464 3 465 -233 233 -233 233 -310 0 c-237 -1 -319 -4 -349 -15z
m584 -237 c0 -167 14 -211 83 -256 39 -26 47 -27 194 -30 l153 -3 0 -409 c0
-225 -3 -416 -6 -425 -17 -43 -40 -45 -509 -45 -469 0 -492 2 -509 45 -3 9 -6
287 -6 618 l0 601 22 23 c21 23 22 23 300 23 l278 0 0 -142z m235 -58 c66 -66
118 -120 115 -120 -44 -4 -181 -1 -199 5 -13 4 -29 22 -37 41 -15 35 -20 194
-6 194 4 0 61 -54 127 -120z"/>
<path d="M286 864 c-23 -22 -20 -60 6 -78 33 -24 633 -24 666 0 28 20 30 69 3
84 -13 6 -138 10 -340 10 -277 0 -322 -2 -335 -16z"/>
<path d="M282 628 c-15 -15 -15 -61 0 -76 17 -17 669 -17 686 0 7 7 12 24 12
38 0 14 -5 31 -12 38 -17 17 -669 17 -686 0z"/>
<path d="M287 392 c-22 -24 -21 -55 1 -75 17 -15 55 -17 340 -17 348 0 352 1
352 55 0 54 -4 55 -354 55 -300 0 -324 -1 -339 -18z"/>
</g>
</svg>
