<?xml version="1.0" standalone="no"?>
<!DOCTYPE svg PUBLIC "-//W3C//DTD SVG 20010904//EN"
 "http://www.w3.org/TR/2001/REC-SVG-20010904/DTD/svg10.dtd">
<svg version="1.0" xmlns="http://www.w3.org/2000/svg"
 width="166.000000pt" height="150.000000pt" viewBox="0 0 166.000000 150.000000"
 preserveAspectRatio="xMidYMid meet">

<g transform="translate(0.000000,150.000000) scale(0.100000,-0.100000)"
fill="#000000" stroke="none">
<path d="M85 1481 c-16 -10 -39 -28 -50 -41 -20 -22 -20 -36 -20 -690 l0 -668
25 -27 c53 -56 38 -55 580 -55 473 0 503 1 538 19 66 34 76 65 80 238 2 85 0
153 -5 153 -5 0 -34 -26 -66 -58 l-57 -58 0 -66 c0 -43 -5 -69 -14 -77 -19
-16 -932 -16 -952 0 -12 10 -14 108 -14 600 l0 589 24 15 c20 14 81 15 480 13
393 -3 458 -5 466 -18 5 -8 10 -56 10 -105 l0 -91 66 -64 66 -65 -4 185 c-3
208 -11 236 -78 271 -33 18 -66 19 -540 19 -474 0 -507 -1 -535 -19z"/>
<path d="M872 1100 c-16 -16 -32 -41 -35 -56 -10 -54 10 -87 127 -204 l115
-114 -118 -121 c-128 -131 -143 -158 -116 -220 15 -38 67 -75 103 -75 40 0 74
25 187 139 l109 111 121 -119 c70 -70 132 -122 148 -126 39 -10 75 2 108 35
23 22 29 38 29 70 0 59 -16 82 -134 200 l-106 104 120 122 c115 116 120 122
120 163 0 80 -38 120 -114 121 l-49 0 -121 -119 -121 -120 -122 120 -121 119
-50 0 c-43 0 -55 -5 -80 -30z"/>
</g>
</svg>
