<?xml version="1.0" standalone="no"?>
<!DOCTYPE svg PUBLIC "-//W3C//DTD SVG 20010904//EN"
 "http://www.w3.org/TR/2001/REC-SVG-20010904/DTD/svg10.dtd">
<svg version="1.0" xmlns="http://www.w3.org/2000/svg"
 width="132.000000pt" height="147.000000pt" viewBox="0 0 132.000000 147.000000"
 preserveAspectRatio="xMidYMid meet">

<g transform="translate(0.000000,147.000000) scale(0.100000,-0.100000)"
fill="#000000" stroke="none">
<path d="M345 1357 c-282 -103 -311 -115 -324 -141 -10 -22 -13 -80 -13 -235
0 -229 16 -340 72 -494 71 -192 197 -340 361 -421 171 -85 267 -85 438 0 164
81 290 229 361 421 56 154 73 274 73 499 -1 149 -4 209 -14 230 -13 26 -42 39
-324 141 -171 62 -312 112 -315 112 -3 0 -144 -50 -315 -112z m598 -81 l275
-99 6 -51 c9 -79 7 -252 -4 -346 -45 -365 -227 -614 -502 -684 -51 -13 -65
-13 -116 0 -274 70 -457 319 -502 684 -11 94 -13 267 -4 346 l6 51 277 100
c152 55 279 100 282 99 4 0 130 -46 282 -100z"/>
<path d="M555 1111 c-28 -12 -62 -51 -74 -84 -6 -16 -11 -64 -11 -108 0 -75
-1 -79 -22 -79 -56 -1 -68 -37 -68 -200 0 -125 9 -177 33 -192 15 -10 478 -10
493 0 27 18 34 56 34 191 0 158 -8 187 -54 199 l-31 8 -5 90 c-6 95 -13 115
-55 154 -24 23 -36 25 -123 27 -53 2 -106 -1 -117 -6z m183 -87 c21 -14 23
-21 20 -97 l-3 -82 -95 0 -95 0 -3 80 c-3 71 -1 82 18 97 26 21 125 22 158 2z
m-38 -284 c23 -23 26 -62 5 -80 -9 -7 -15 -35 -17 -73 -3 -59 -4 -62 -28 -62
-24 0 -25 3 -28 62 -2 38 -8 66 -17 73 -34 28 -1 100 45 100 11 0 29 -9 40
-20z"/>
</g>
</svg>
