<?xml version="1.0" standalone="no"?>
<!DOCTYPE svg PUBLIC "-//W3C//DTD SVG 20010904//EN"
 "http://www.w3.org/TR/2001/REC-SVG-20010904/DTD/svg10.dtd">
<svg version="1.0" xmlns="http://www.w3.org/2000/svg"
 width="166.000000pt" height="151.000000pt" viewBox="0 0 166.000000 151.000000"
 preserveAspectRatio="xMidYMid meet">

<g transform="translate(0.000000,151.000000) scale(0.100000,-0.100000)"
fill="#000000" stroke="none">
<path d="M865 1480 c-24 -26 -22 -70 3 -90 13 -11 48 -19 94 -23 268 -23 498
-227 553 -492 67 -318 -131 -634 -450 -720 -77 -21 -231 -21 -310 0 -149 40
-297 152 -375 284 -37 63 -88 206 -77 217 3 3 16 -6 30 -20 52 -52 140 -18
123 47 -9 36 -198 217 -227 217 -36 0 -229 -195 -229 -231 0 -62 77 -79 125
-29 16 17 31 30 35 30 3 0 11 -30 18 -66 48 -253 244 -476 492 -558 163 -54
310 -54 475 -2 113 36 198 89 290 181 124 124 182 238 211 411 66 390 -195
767 -589 848 -107 22 -169 21 -192 -4z"/>
<path d="M873 1225 c-17 -7 -33 -20 -37 -30 -3 -9 -6 -119 -6 -243 l0 -227
-114 -115 c-63 -63 -118 -126 -121 -140 -9 -38 27 -80 68 -80 27 0 51 19 169
138 l138 138 0 260 c0 212 -3 263 -15 281 -19 27 -46 33 -82 18z"/>
<path d="M1177 1122 c-51 -52 -47 -102 8 -102 26 0 95 69 95 96 0 54 -53 58
-103 6z"/>
<path d="M1302 788 c-17 -17 -15 -44 4 -62 19 -19 114 -22 132 -4 7 7 12 21
12 33 0 34 -20 45 -80 45 -31 0 -61 -5 -68 -12z"/>
<path d="M1152 478 c-22 -22 -13 -53 26 -91 39 -38 69 -46 90 -25 22 22 13 53
-26 91 -39 38 -69 46 -90 25z"/>
<path d="M842 348 c-15 -15 -16 -102 -2 -129 12 -21 50 -25 68 -7 16 16 16
120 0 136 -7 7 -21 12 -33 12 -12 0 -26 -5 -33 -12z"/>
</g>
</svg>
